# xmcd
#
# Track frame offsets:
#	150
#	16323
#	33255
#	47283
#	52305
#	69985
#	83645
#	101965
#	117286
#	130345
#	145815
#	165970
#	186740
#
# Disc length: 2720 seconds
#
# Revision: 1
# Processed by: cddbd v1.5.2PL0 Copyright (c) Steve Scherf et al.
# Submitted via: audiograbber 1.83.01
#
DISCID=b00a9e0d
DTITLE=Lonely Drifter Caren - Grass Is Singing
DYEAR=2008
DGENRE=Alternative
TTITLE0=This World is Crazy
TTITLE1=The Angels Sigh
TTITLE2=Passengers of the Night
TTITLE3=The Owl Moans Low
TTITLE4=Climb
TTITLE5=Casablanca
TTITLE6=Professor Dragon
TTITLE7=Salvation
TTITLE8=Carousel Horses
TTITLE9=True Desire
TTITLE10=Giselle
TTITLE11=No True Woman
TTITLE12=La Hierba Canta
EXTD=
EXTT0=
EXTT1=
EXTT2=
EXTT3=
EXTT4=
EXTT5=
EXTT6=
EXTT7=
EXTT8=
EXTT9=
EXTT10=
EXTT11=
EXTT12=
PLAYORDER=
